# xmcd
#
# Track frame offsets: 
#        150
#        16882
#        33402
#        50475
#
# Disc length: 918 seconds
#
# Revision: 0
# Processed by: cddbd v1.5.2PL0 Copyright (c) Steve Scherf et al.
# Submitted via: ExactAudioCopy v1.3
#
DISCID=28039404
DTITLE=Lucy Pearl - Don't Mess With My Man [CDS Promo Europe)
DYEAR=2000
DGENRE=R&B
TTITLE0=Don't Mess With My Man (Album Version)
TTITLE1=Don't Mess With My Man (Mood II Swing Edit)
TTITLE2=Don't Mess With My Man (Wookie Radio Mix)
TTITLE3=Don't Mess With My Man (Linslee Remix)
EXTD=
EXTT0=
EXTT1=
EXTT2=
EXTT3=
PLAYORDER=
